# Blender 3.3.1
# www.blender.org
o Cylinder
v 0.000000 -0.702206 -11.044515
v 0.000000 0.702206 -11.044515
v 2.154678 -0.702206 -10.832297
v 2.154678 0.702206 -10.832297
v 4.226553 -0.702206 -10.203801
v 4.226553 0.702206 -10.203801
v 6.136003 -0.702206 -9.183178
v 6.136003 0.702206 -9.183178
v 7.809651 -0.702206 -7.809651
v 7.809651 0.702206 -7.809651
v 9.183178 -0.702206 -6.136003
v 9.183178 0.702206 -6.136003
v 10.203801 -0.702206 -4.226553
v 10.203801 0.702206 -4.226553
v 10.832297 -0.702206 -2.154678
v 10.832297 0.702206 -2.154678
v 11.044515 -0.702206 0.000000
v 11.044515 0.702206 0.000000
v 10.832297 -0.702206 2.154678
v 10.832297 0.702206 2.154678
v 10.203801 -0.702206 4.226553
v 10.203801 0.702206 4.226553
v 9.183178 -0.702206 6.136003
v 9.183178 0.702206 6.136003
v 7.809651 -0.702206 7.809651
v 7.809651 0.702206 7.809651
v 6.136003 -0.702206 9.183178
v 6.136003 0.702206 9.183178
v 4.226553 -0.702206 10.203801
v 4.226553 0.702206 10.203801
v 2.154678 -0.702206 10.832297
v 2.154678 0.702206 10.832297
v 0.000000 -0.702206 11.044515
v 0.000000 0.702206 11.044515
v -2.154678 -0.702206 10.832297
v -2.154678 0.702206 10.832297
v -4.226553 -0.702206 10.203801
v -4.226553 0.702206 10.203801
v -6.136003 -0.702206 9.183178
v -6.136003 0.702206 9.183178
v -7.809651 -0.702206 7.809651
v -7.809651 0.702206 7.809651
v -9.183178 -0.702206 6.136003
v -9.183178 0.702206 6.136003
v -10.203801 -0.702206 4.226553
v -10.203801 0.702206 4.226553
v -10.832297 -0.702206 2.154678
v -10.832297 0.702206 2.154678
v -11.044515 -0.702206 0.000000
v -11.044515 0.702206 0.000000
v -10.832297 -0.702206 -2.154678
v -10.832297 0.702206 -2.154678
v -10.203801 -0.702206 -4.226553
v -10.203801 0.702206 -4.226553
v -9.183178 -0.702206 -6.136003
v -9.183178 0.702206 -6.136003
v -7.809651 -0.702206 -7.809651
v -7.809651 0.702206 -7.809651
v -6.136003 -0.702206 -9.183178
v -6.136003 0.702206 -9.183178
v -4.226553 -0.702206 -10.203801
v -4.226553 0.702206 -10.203801
v -2.154678 -0.702206 -10.832297
v -2.154678 0.702206 -10.832297
v -3.423065 0.702206 0.000000
v -3.357292 0.702206 -0.667807
v -3.357292 0.702206 0.667807
v -2.846175 0.702206 1.901753
v -2.846175 0.702206 -1.901753
v -2.420473 0.702206 2.420473
v -3.162500 0.702206 1.309950
v -3.162500 0.702206 -1.309950
v -1.901753 0.702206 2.846175
v -1.901753 0.702206 -2.846175
v 0.000000 0.702206 -3.423065
v -0.667807 0.702206 -3.357292
v 1.309950 0.702206 -3.162500
v 0.667807 0.702206 -3.357292
v -1.309950 0.702206 -3.162500
v -2.420473 0.702206 -2.420473
v -1.309950 0.702206 3.162500
v 0.000000 0.702206 3.423065
v 0.667807 0.702206 3.357292
v -0.667807 0.702206 3.357292
v 1.309950 0.702206 3.162500
v 1.901753 0.702206 -2.846175
v 1.901753 0.702206 2.846175
v 2.846175 0.702206 1.901753
v 2.846175 0.702206 -1.901753
v 3.423065 0.702206 0.000000
v 3.357292 0.702206 0.667807
v 3.357292 0.702206 -0.667807
v 3.162500 0.702206 -1.309950
v 2.420473 0.702206 2.420473
v 3.162500 0.702206 1.309950
v 2.420473 0.702206 -2.420473
v 0.000000 -0.702206 -3.423065
v 0.667807 -0.702206 -3.357292
v 1.901753 -0.702206 2.846175
v 1.309950 -0.702206 3.162500
v 1.901753 -0.702206 -2.846175
v 0.667807 -0.702206 3.357292
v 1.309950 -0.702206 -3.162500
v 2.846175 -0.702206 1.901753
v 2.420473 -0.702206 2.420473
v 2.846175 -0.702206 -1.901753
v 3.423065 -0.702206 0.000000
v 3.357292 -0.702206 -0.667807
v 3.162500 -0.702206 1.309950
v 3.357292 -0.702206 0.667807
v 3.162500 -0.702206 -1.309950
v 2.420473 -0.702206 -2.420473
v -3.423065 -0.702206 0.000000
v -3.162500 -0.702206 1.309950
v -3.357292 -0.702206 0.667807
v -3.357292 -0.702206 -0.667807
v -2.846175 -0.702206 1.901753
v -2.846175 -0.702206 -1.901753
v -2.420473 -0.702206 2.420473
v -3.162500 -0.702206 -1.309950
v -1.901753 -0.702206 2.846175
v -1.901753 -0.702206 -2.846175
v -1.309950 -0.702206 -3.162500
v -0.667807 -0.702206 -3.357292
v 0.000000 -0.702206 3.423065
v -0.667807 -0.702206 3.357292
v -1.309950 -0.702206 3.162500
v -2.420473 -0.702206 -2.420473
v -10.683047 -0.702205 1.887188
v -10.683047 1.128373 1.887188
v -10.683047 -0.702205 0.000000
v -10.683047 1.128373 0.000000
v -25.542322 -0.702205 1.887188
v -25.542322 1.128373 1.887188
v -25.542322 -0.702205 0.000000
v -25.542322 1.128373 0.000000
vn 0.0980 -0.0000 -0.9952
vn 0.2903 -0.0000 -0.9569
vn 0.4714 -0.0000 -0.8819
vn 0.6344 -0.0000 -0.7730
vn 0.7730 -0.0000 -0.6344
vn 0.8819 -0.0000 -0.4714
vn 0.9569 -0.0000 -0.2903
vn 0.9952 -0.0000 -0.0980
vn 0.9952 -0.0000 0.0980
vn 0.9569 -0.0000 0.2903
vn 0.8819 -0.0000 0.4714
vn 0.7730 -0.0000 0.6344
vn 0.6344 -0.0000 0.7730
vn 0.4714 -0.0000 0.8819
vn 0.2903 -0.0000 0.9569
vn 0.0980 -0.0000 0.9952
vn -0.0980 -0.0000 0.9952
vn -0.2903 -0.0000 0.9569
vn -0.4714 -0.0000 0.8819
vn -0.6344 -0.0000 0.7730
vn -0.7730 -0.0000 0.6344
vn -0.8819 -0.0000 0.4714
vn -0.9569 -0.0000 0.2903
vn -0.9952 -0.0000 -0.0980
vn -0.9569 -0.0000 -0.2903
vn -0.8819 -0.0000 -0.4714
vn -0.7730 -0.0000 -0.6344
vn -0.6344 -0.0000 -0.7730
vn -0.4714 -0.0000 -0.8819
vn -0.2903 -0.0000 -0.9569
vn -0.0980 -0.0000 -0.9952
vn -0.9952 -0.0000 0.0980
vn -0.0000 -0.0000 1.0000
vn -0.0000 -0.0000 -1.0000
vn -0.0000 -1.0000 -0.0000
vt 1.000000 0.500000
vt 0.000000 0.500000
vt 1.000000 1.000000
vt 0.000000 1.000000
vt 0.968750 0.500000
vt 0.968750 1.000000
vt 0.937500 0.500000
vt 0.937500 1.000000
vt 0.906250 0.500000
vt 0.906250 1.000000
vt 0.875000 0.500000
vt 0.875000 1.000000
vt 0.843750 0.500000
vt 0.843750 1.000000
vt 0.812500 0.500000
vt 0.812500 1.000000
vt 0.781250 0.500000
vt 0.781250 1.000000
vt 0.750000 0.500000
vt 0.750000 1.000000
vt 0.718750 0.500000
vt 0.718750 1.000000
vt 0.687500 0.500000
vt 0.687500 1.000000
vt 0.656250 0.500000
vt 0.656250 1.000000
vt 0.625000 0.500000
vt 0.625000 1.000000
vt 0.593750 0.500000
vt 0.593750 1.000000
vt 0.562500 0.500000
vt 0.562500 1.000000
vt 0.531250 0.500000
vt 0.531250 1.000000
vt 0.500000 0.500000
vt 0.500000 1.000000
vt 0.468750 0.500000
vt 0.468750 1.000000
vt 0.437500 0.500000
vt 0.437500 1.000000
vt 0.406250 0.500000
vt 0.406250 1.000000
vt 0.375000 0.500000
vt 0.375000 1.000000
vt 0.343750 0.500000
vt 0.343750 1.000000
vt 0.312500 0.500000
vt 0.312500 1.000000
vt 0.281250 0.500000
vt 0.281250 1.000000
vt 0.250000 0.500000
vt 0.250000 1.000000
vt 0.218750 0.500000
vt 0.218750 1.000000
vt 0.187500 0.500000
vt 0.187500 1.000000
vt 0.156250 0.500000
vt 0.156250 1.000000
vt 0.125000 0.500000
vt 0.125000 1.000000
vt 0.093750 0.500000
vt 0.093750 1.000000
vt 0.062500 0.500000
vt 0.062500 1.000000
vt 0.031250 0.500000
vt 0.031250 1.000000
vt 0.250000 0.782520
vt 0.218750 0.782520
vt 0.281250 0.782520
vt 0.343750 0.782520
vt 0.156250 0.782520
vt 0.375000 0.782520
vt 0.312500 0.782520
vt 0.187500 0.782520
vt 0.406250 0.782520
vt 0.093750 0.782520
vt 1.000000 0.782520
vt 0.000000 0.782520
vt 0.031250 0.782520
vt 0.937500 0.782520
vt 0.968750 0.782520
vt 0.062500 0.782520
vt 0.125000 0.782520
vt 0.437500 0.782520
vt 0.500000 0.782520
vt 0.531250 0.782520
vt 0.468750 0.782520
vt 0.562500 0.782520
vt 0.906250 0.782520
vt 0.593750 0.782520
vt 0.656250 0.782520
vt 0.843750 0.782520
vt 0.750000 0.782520
vt 0.718750 0.782520
vt 0.781250 0.782520
vt 0.812500 0.782520
vt 0.625000 0.782520
vt 0.687500 0.782520
vt 0.875000 0.782520
vt 0.000000 0.717480
vt 1.000000 0.717480
vt 0.968750 0.717480
vt 0.593750 0.717480
vt 0.562500 0.717480
vt 0.906250 0.717480
vt 0.531250 0.717480
vt 0.937500 0.717480
vt 0.656250 0.717480
vt 0.625000 0.717480
vt 0.843750 0.717480
vt 0.750000 0.717480
vt 0.781250 0.717480
vt 0.687500 0.717480
vt 0.718750 0.717480
vt 0.812500 0.717480
vt 0.875000 0.717480
vt 0.250000 0.717480
vt 0.312500 0.717480
vt 0.281250 0.717480
vt 0.218750 0.717480
vt 0.343750 0.717480
vt 0.156250 0.717480
vt 0.375000 0.717480
vt 0.187500 0.717480
vt 0.406250 0.717480
vt 0.093750 0.717480
vt 0.062500 0.717480
vt 0.031250 0.717480
vt 0.500000 0.717480
vt 0.468750 0.717480
vt 0.437500 0.717480
vt 0.125000 0.717480
vt 0.375000 1.000000
vt 0.625000 1.000000
vt 0.875000 0.750000
vt 0.375000 0.250000
vt 0.625000 0.250000
vt 0.875000 0.500000
vt 0.375000 0.750000
vt 0.625000 0.750000
vt 0.375000 0.500000
vt 0.625000 0.500000
s 0
f 2/3/1 3/5/1 1/1/1
f 4/6/2 5/7/2 3/5/2
f 6/8/3 7/9/3 5/7/3
f 8/10/4 9/11/4 7/9/4
f 10/12/5 11/13/5 9/11/5
f 12/14/6 13/15/6 11/13/6
f 14/16/7 15/17/7 13/15/7
f 16/18/8 17/19/8 15/17/8
f 18/20/9 19/21/9 17/19/9
f 20/22/10 21/23/10 19/21/10
f 22/24/11 23/25/11 21/23/11
f 24/26/12 25/27/12 23/25/12
f 26/28/13 27/29/13 25/27/13
f 28/30/14 29/31/14 27/29/14
f 30/32/15 31/33/15 29/31/15
f 32/34/16 33/35/16 31/33/16
f 34/36/17 35/37/17 33/35/17
f 36/38/18 37/39/18 35/37/18
f 38/40/19 39/41/19 37/39/19
f 40/42/20 41/43/20 39/41/20
f 42/44/21 43/45/21 41/43/21
f 44/46/22 45/47/22 43/45/22
f 46/48/23 47/49/23 45/47/23
f 50/52/24 51/53/24 49/51/24
f 52/54/25 53/55/25 51/53/25
f 54/56/26 55/57/26 53/55/26
f 56/58/27 57/59/27 55/57/27
f 58/60/28 59/61/28 57/59/28
f 60/62/29 61/63/29 59/61/29
f 62/64/30 63/65/30 61/63/30
f 64/66/31 1/2/31 63/65/31
f 78/81/17 97/101/17 98/102/17
f 77/80/18 98/102/18 103/107/18
f 86/89/19 103/107/19 101/105/19
f 96/99/20 101/105/20 112/116/20
f 96/99/21 106/110/21 89/92/21
f 89/92/22 111/115/22 93/96/22
f 93/96/23 108/112/23 92/95/23
f 92/95/32 107/111/32 90/93/32
f 90/93/24 110/114/24 91/94/24
f 91/94/25 109/113/25 95/98/25
f 95/98/26 104/108/26 88/91/26
f 88/91/27 105/109/27 94/97/27
f 94/97/28 99/103/28 87/90/28
f 87/90/29 100/104/29 85/88/29
f 85/88/30 102/106/30 83/86/30
f 83/86/31 125/129/31 82/85/31
f 82/85/1 126/130/1 84/87/1
f 84/87/2 127/131/2 81/84/2
f 81/84/3 121/125/3 73/75/3
f 73/75/4 119/123/4 70/72/4
f 68/70/5 119/123/5 117/121/5
f 71/73/6 117/121/6 114/118/6
f 67/69/7 114/118/7 115/119/7
f 65/67/8 115/119/8 113/117/8
f 66/68/9 113/117/9 116/120/9
f 72/74/10 116/120/10 120/124/10
f 69/71/11 120/124/11 118/122/11
f 80/83/12 118/122/12 128/132/12
f 74/76/13 128/132/13 122/126/13
f 79/82/14 122/126/14 123/127/14
f 76/79/15 123/127/15 124/128/15
f 75/78/16 124/128/16 97/100/16
f 132/137/33 135/141/33 131/136/33
f 134/140/34 129/133/34 133/139/34
f 132/138/35 134/140/35 136/142/35
f 2/3/1 4/6/1 3/5/1
f 4/6/2 6/8/2 5/7/2
f 6/8/3 8/10/3 7/9/3
f 8/10/4 10/12/4 9/11/4
f 10/12/5 12/14/5 11/13/5
f 12/14/6 14/16/6 13/15/6
f 14/16/7 16/18/7 15/17/7
f 16/18/8 18/20/8 17/19/8
f 18/20/9 20/22/9 19/21/9
f 20/22/10 22/24/10 21/23/10
f 22/24/11 24/26/11 23/25/11
f 24/26/12 26/28/12 25/27/12
f 26/28/13 28/30/13 27/29/13
f 28/30/14 30/32/14 29/31/14
f 30/32/15 32/34/15 31/33/15
f 32/34/16 34/36/16 33/35/16
f 34/36/17 36/38/17 35/37/17
f 36/38/18 38/40/18 37/39/18
f 38/40/19 40/42/19 39/41/19
f 40/42/20 42/44/20 41/43/20
f 42/44/21 44/46/21 43/45/21
f 44/46/22 46/48/22 45/47/22
f 46/48/23 48/50/23 47/49/23
f 50/52/24 52/54/24 51/53/24
f 52/54/25 54/56/25 53/55/25
f 54/56/26 56/58/26 55/57/26
f 56/58/27 58/60/27 57/59/27
f 58/60/28 60/62/28 59/61/28
f 60/62/29 62/64/29 61/63/29
f 62/64/30 64/66/30 63/65/30
f 64/66/31 2/4/31 1/2/31
f 78/81/17 75/77/17 97/101/17
f 77/80/18 78/81/18 98/102/18
f 86/89/19 77/80/19 103/107/19
f 96/99/20 86/89/20 101/105/20
f 96/99/21 112/116/21 106/110/21
f 89/92/22 106/110/22 111/115/22
f 93/96/23 111/115/23 108/112/23
f 92/95/32 108/112/32 107/111/32
f 90/93/24 107/111/24 110/114/24
f 91/94/25 110/114/25 109/113/25
f 95/98/26 109/113/26 104/108/26
f 88/91/27 104/108/27 105/109/27
f 94/97/28 105/109/28 99/103/28
f 87/90/29 99/103/29 100/104/29
f 85/88/30 100/104/30 102/106/30
f 83/86/31 102/106/31 125/129/31
f 82/85/1 125/129/1 126/130/1
f 84/87/2 126/130/2 127/131/2
f 81/84/3 127/131/3 121/125/3
f 73/75/4 121/125/4 119/123/4
f 68/70/5 70/72/5 119/123/5
f 71/73/6 68/70/6 117/121/6
f 67/69/7 71/73/7 114/118/7
f 65/67/8 67/69/8 115/119/8
f 66/68/9 65/67/9 113/117/9
f 72/74/10 66/68/10 116/120/10
f 69/71/11 72/74/11 120/124/11
f 80/83/12 69/71/12 118/122/12
f 74/76/13 80/83/13 128/132/13
f 79/82/14 74/76/14 122/126/14
f 76/79/15 79/82/15 123/127/15
f 75/78/16 76/79/16 124/128/16
f 132/137/33 136/142/33 135/141/33
f 134/140/34 130/134/34 129/133/34
f 132/138/35 130/135/35 134/140/35
